<?xml version="1.0" encoding="UTF-8"?>
<svg version="1.1" xmlns="http://www.w3.org/2000/svg" width="2000" height="2000">
<path d="M0 0 C660 0 1320 0 2000 0 C2000 660 2000 1320 2000 2000 C1340 2000 680 2000 0 2000 C0 1340 0 680 0 0 Z " fill="#000000" transform="translate(0,0)"/>
<path d="M0 0 C2.75364915 1.37682457 2.9088507 2.79223738 4.03344727 5.63745117 C4.434104 6.64098633 4.83476074 7.64452148 5.24755859 8.6784668 C5.68277832 9.78875244 6.11799805 10.89903809 6.56640625 12.04296875 C7.02797119 13.20393066 7.48953613 14.36489258 7.96508789 15.56103516 C8.97202207 18.09589848 9.97643935 20.63160177 10.97683716 23.16903687 C12.57959582 27.23376446 14.19195902 31.29463543 15.80639648 35.35473633 C16.36067824 36.74888363 16.9149537 38.14303343 17.46922302 39.53718567 C17.74650175 40.2345817 18.02378048 40.93197773 18.30946159 41.65050697 C19.16413729 43.80109651 20.01791734 45.95203971 20.87147522 48.10307312 C26.45719749 62.17597407 32.11340341 76.22008577 37.78373337 90.25906754 C39.09286537 93.50082513 40.40099604 96.74298674 41.70922852 99.98510742 C43.79015919 105.141816 45.87165178 110.29829737 47.95361328 115.45458984 C50.90632643 122.76747881 53.85766239 130.0809231 56.80859375 137.39453125 C57.28006332 138.56301605 57.7515329 139.73150085 58.23728943 140.93539429 C59.18534663 143.28505323 60.13340064 145.63471346 61.08145142 147.984375 C62.50106603 151.50264196 63.92080237 155.02085978 65.34057617 158.5390625 C74.72746642 181.80010599 84.10775977 205.06380788 93.48736572 228.32778931 C97.1095226 237.31171544 100.73218537 246.29543738 104.35533524 255.27896309 C116.05231177 284.28150849 127.74204803 313.28695863 139.42440796 342.2953949 C148.19507914 364.07375618 156.96911004 385.85075671 165.75 407.625 C166.00438843 408.25581482 166.25877686 408.88662964 166.52087402 409.53656006 C168.81888296 415.23495931 171.11697827 420.93332372 173.41516113 426.63165283 C177.02192375 435.57460339 180.62828762 444.51771465 184.234375 453.4609375 C184.49304792 454.10245317 184.75172085 454.74396885 185.01823235 455.40492439 C187.36033638 461.21341007 189.70241362 467.02190655 192.04446411 472.83041382 C193.58822379 476.65908308 195.13199699 480.4877469 196.67578125 484.31640625 C197.05900386 485.26681951 197.05900386 485.26681951 197.44996834 486.23643303 C201.02431509 495.10095593 204.59918228 503.96526881 208.17440796 512.82943726 C210.1821569 517.80731841 212.18976725 522.78525545 214.19734764 527.76320457 C215.5629265 531.1492309 216.92858332 534.53522573 218.29443359 537.92114258 C229.07644517 564.64972195 229.07644517 564.64972195 234 577 C244.52758166 577.18980639 254.82707588 576.86397289 265.3112793 575.85424805 C275.95364812 574.85344481 286.61514345 574.27694767 297.28710938 573.69775391 C305.40810441 573.27930436 305.40810441 573.27930436 313.5 572.5 C319.60412925 571.75342582 325.75370929 571.51733427 331.89135742 571.18432617 C342.44256455 570.60884772 352.97836092 569.9919061 363.5 569 C374.74676873 567.93973378 386.01259956 567.30919445 397.29101562 566.69726562 C405.41006045 566.27916916 405.41006045 566.27916916 413.5 565.5 C419.60412925 564.75342582 425.75370929 564.51733427 431.89135742 564.18432617 C442.44258144 563.6088468 452.97832061 562.99159745 463.5 562 C473.72800459 561.0384811 483.968398 560.44784123 494.22369385 559.87600708 C504.21583363 559.31632033 514.17900612 558.60736685 524.14453125 557.6796875 C530.91798182 557.06034441 537.68128745 556.68825157 544.47558594 556.39208984 C550.54432212 556.11190261 556.57647417 555.62555036 562.625 555.0625 C573.14439925 554.08767324 583.67365175 553.46405026 594.21984863 552.87628174 C604.21326914 552.31649348 614.17772764 551.60748586 624.14453125 550.6796875 C630.91798182 550.06034441 637.68128745 549.68825157 644.47558594 549.39208984 C650.54432212 549.11190261 656.57647417 548.62555036 662.625 548.0625 C673.14439925 547.08767324 683.67365175 546.46405026 694.21984863 545.87628174 C704.21326914 545.31649348 714.17772764 544.60748586 724.14453125 543.6796875 C730.91798182 543.06034441 737.68128745 542.68825157 744.47558594 542.39208984 C750.54432212 542.11190261 756.57647417 541.62555036 762.625 541.0625 C773.14537402 540.08758291 783.67563753 539.46330902 794.22286987 538.87628174 C804.12912207 538.32227102 814.0040926 537.61283529 823.88305664 536.68408203 C834.23541057 535.74097509 844.61329984 535.35721071 855 535 C851.13320401 538.96971452 847.07338313 542.63491924 842.875 546.25 C841.87932007 547.11032837 841.87932007 547.11032837 840.86352539 547.98803711 C836.2409916 551.96813407 831.54913839 555.8524808 826.80859375 559.69140625 C823.4970152 562.41344091 820.24686941 565.20139731 817 568 C812.01063907 572.29977994 806.95778656 576.50485562 801.84375 580.65625 C798.52313514 583.39302049 795.25953218 586.1910295 792 589 C787.01059233 593.29972713 781.95778844 597.50485409 776.84375 601.65625 C773.52313514 604.39302049 770.25953218 607.1910295 767 610 C762.87531796 613.55453161 758.72792288 617.06792143 754.5 620.5 C749.09923828 624.88712902 743.825323 629.41223412 738.55078125 633.94921875 C731.28968997 640.19427321 723.99446571 646.3963115 716.5625 652.4375 C711.69870975 656.39508188 706.94118769 660.46542446 702.19165039 664.55834961 C697.8019965 668.33334391 693.33885229 672.00728461 688.84375 675.65625 C685.52313514 678.39302049 682.25953218 681.1910295 679 684 C674.01059233 688.29972713 668.95778844 692.50485409 663.84375 696.65625 C660.52313514 699.39302049 657.25953218 702.1910295 654 705 C649.01059233 709.29972713 643.95778844 713.50485409 638.84375 717.65625 C635.52313514 720.39302049 632.25953218 723.1910295 629 726 C624.87531796 729.55453161 620.72792288 733.06792143 616.5 736.5 C611.09923828 740.88712902 605.825323 745.41223412 600.55078125 749.94921875 C593.28968997 756.19427321 585.99446571 762.3963115 578.5625 768.4375 C573.69870975 772.39508188 568.94118769 776.46542446 564.19165039 780.55834961 C559.8019965 784.33334391 555.33885229 788.00728461 550.84375 791.65625 C547.52313514 794.39302049 544.25953218 797.1910295 541 800 C536.01059233 804.29972713 530.95778844 808.50485409 525.84375 812.65625 C522.52313514 815.39302049 519.25953218 818.1910295 516 821 C511.01059233 825.29972713 505.95778844 829.50485409 500.84375 833.65625 C497.52313514 836.39302049 494.25953218 839.1910295 491 842 C486.01059233 846.29972713 480.95778844 850.50485409 475.84375 854.65625 C472.52313514 857.39302049 469.25953218 860.1910295 466 863 C461.87531796 866.55453161 457.72792288 870.06792143 453.5 873.5 C448.09923828 877.88712902 442.825323 882.41223412 437.55078125 886.94921875 C430.28968997 893.19427321 422.99446571 899.3963115 415.5625 905.4375 C411.31607452 908.89274286 407.14706799 912.42701192 403 916 C395.46109261 922.49440958 387.77572129 928.79051134 380 935 C380.59523544 939.41504204 381.70618051 943.1827295 383.37890625 947.30664062 C383.62230366 947.91156027 383.86570107 948.51647991 384.11647415 949.13973045 C384.92605466 951.14762005 385.74425862 953.15187596 386.5625 955.15625 C387.14293616 956.5909372 387.722818 958.02584876 388.30218506 959.46096802 C389.86782291 963.33492624 391.44083991 967.20584944 393.01512146 971.07630157 C394.6725084 975.15498332 396.32281083 979.23652886 397.97363281 983.31787109 C400.67795417 990.00188431 403.38570864 996.68449603 406.09570312 1003.36621094 C409.61077337 1012.03418282 413.11379173 1020.70696562 416.609375 1029.3828125 C416.86732849 1030.02300575 417.12528198 1030.66319901 417.39105225 1031.32279205 C418.41796135 1033.87151119 419.4447843 1036.42026501 420.47145081 1038.96908188 C423.02073419 1045.2978874 425.57270072 1051.62560981 428.12493896 1057.95322418 C429.39652677 1061.10582688 430.66798751 1064.25848083 431.93945312 1067.41113281 C432.31697975 1068.34721689 432.31697975 1068.34721689 432.70213318 1069.30221176 C436.85209396 1079.59221215 441.00118523 1089.88256318 445.15039635 1100.17286587 C446.97409221 1104.69574212 448.79782609 1109.21860305 450.62158203 1113.74145508 C455.59116737 1126.06587337 460.56062022 1138.39034504 465.52973175 1150.71495438 C467.89477557 1156.5808213 470.25987079 1162.4466675 472.625 1168.3125 C472.88452454 1168.95615509 473.14404907 1169.59981018 473.41143799 1170.26296997 C481.10470167 1189.3431602 488.80104799 1208.42210417 496.5 1227.5 C506.83392679 1253.10732664 517.16163384 1278.71715747 527.48736572 1304.32778931 C531.36340475 1313.94141167 535.24008655 1323.55477461 539.1171875 1333.16796875 C544.57797249 1346.70795616 550.03745734 1360.24846742 555.49616528 1373.78929234 C557.2093019 1378.03882851 558.9226465 1382.28828078 560.63611889 1386.53768158 C568.83478637 1406.87047241 577.02707065 1427.20582082 585.20825195 1447.5456543 C586.40901265 1450.53094311 587.61003614 1453.51612599 588.8112793 1456.5012207 C592.00860605 1464.4469776 595.2036114 1472.39365575 598.3921423 1480.34294701 C599.72747368 1483.6720291 601.06384579 1487.00068256 602.40310669 1490.32818604 C603.8624277 1493.95423168 605.31629 1497.58245061 606.76953125 1501.2109375 C607.20235413 1502.28426331 607.635177 1503.35758911 608.08111572 1504.46343994 C608.46918396 1505.43505066 608.8572522 1506.40666138 609.25708008 1507.40771484 C609.59596756 1508.25200043 609.93485504 1509.09628601 610.28401184 1509.96615601 C611 1512 611 1512 611 1514 C607.58060528 1512.72341094 604.60515497 1511.25086771 601.54296875 1509.26953125 C600.69041504 1508.72176025 599.83786133 1508.17398926 598.95947266 1507.60961914 C598.04472168 1507.01656982 597.1299707 1506.42352051 596.1875 1505.8125 C594.19978208 1504.53558099 592.21148066 1503.25956994 590.22265625 1501.984375 C589.19543457 1501.32501953 588.16821289 1500.66566406 587.10986328 1499.98632812 C582.136803 1496.80994106 577.1322662 1493.6845907 572.125 1490.5625 C570.63069458 1489.63014526 570.63069458 1489.63014526 569.10620117 1488.67895508 C567.08171158 1487.41607082 565.05705324 1486.15345701 563.03222656 1484.89111328 C558.01909464 1481.76456579 553.00970442 1478.63203534 548 1475.5 C541.94236888 1471.71330011 535.8842495 1467.92739001 529.82421875 1464.14453125 C519.93720722 1457.97142253 510.06015109 1451.78374244 500.21044922 1445.55126953 C490.85743274 1439.6375846 481.4675087 1433.78295976 472.08056641 1427.92333984 C466.05626601 1424.16209095 460.03446118 1420.39684818 454.01220703 1416.63232422 C448.95038597 1413.46837635 443.88792852 1410.30545562 438.82421875 1407.14453125 C428.93720722 1400.97142253 419.06015109 1394.78374244 409.21044922 1388.55126953 C398.83426221 1381.99065875 388.41408849 1375.50020065 378 1369 C366.05345717 1361.54328158 354.11090364 1354.08137153 342.21044922 1346.55126953 C332.85743274 1340.6375846 323.4675087 1334.78295976 314.08056641 1328.92333984 C308.05626601 1325.16209095 302.03446118 1321.39684818 296.01220703 1317.63232422 C290.95038597 1314.46837635 285.88792852 1311.30545562 280.82421875 1308.14453125 C270.93720722 1301.97142253 261.06015109 1295.78374244 251.21044922 1289.55126953 C240.83426221 1282.99065875 230.41408849 1276.50020065 220 1270 C208.05345717 1262.54328158 196.11090364 1255.08137153 184.21044922 1247.55126953 C174.85743274 1241.6375846 165.4675087 1235.78295976 156.08056641 1229.92333984 C150.05626601 1226.16209095 144.03446118 1222.39684818 138.01220703 1218.63232422 C132.95038597 1215.46837635 127.88792852 1212.30545562 122.82421875 1209.14453125 C120.77863921 1207.86719811 118.73306623 1206.58985446 116.6875 1205.3125 C115.69983643 1204.69616699 114.71217285 1204.07983398 113.69458008 1203.44482422 C108.91000331 1200.45610012 104.1338716 1197.45529497 99.375 1194.42578125 C98.49755127 1193.86785889 97.62010254 1193.30993652 96.71606445 1192.73510742 C95.07474439 1191.68996831 93.43515128 1190.64211033 91.79760742 1189.59106445 C91.07420166 1189.13046631 90.3507959 1188.66986816 89.60546875 1188.1953125 C88.66417114 1187.59227295 88.66417114 1187.59227295 87.70385742 1186.97705078 C85.85334557 1185.84133881 85.85334557 1185.84133881 83 1185 C80.69220731 1186.71869824 78.62033445 1188.44597392 76.5 1190.375 C75.23008594 1191.49843582 73.9592437 1192.62082328 72.6875 1193.7421875 C72.05972656 1194.3000293 71.43195312 1194.85787109 70.78515625 1195.43261719 C68.4079274 1197.51984493 65.96221133 1199.51410932 63.5 1201.5 C58.09923828 1205.88712902 52.825323 1210.41223412 47.55078125 1214.94921875 C40.28968997 1221.19427321 32.99446571 1227.3963115 25.5625 1233.4375 C20.69870975 1237.39508188 15.94118769 1241.46542446 11.19165039 1245.55834961 C7.66701081 1248.58945289 4.10960118 1251.56985316 0.5 1254.5 C-4.90076172 1258.88712902 -10.174677 1263.41223412 -15.44921875 1267.94921875 C-22.71031003 1274.19427321 -30.00553429 1280.3963115 -37.4375 1286.4375 C-42.30129025 1290.39508188 -47.05881231 1294.46542446 -51.80834961 1298.55834961 C-56.1980035 1302.33334391 -60.66114771 1306.00728461 -65.15625 1309.65625 C-68.47686486 1312.39302049 -71.74046782 1315.1910295 -75 1318 C-79.12468204 1321.55453161 -83.27207712 1325.06792143 -87.5 1328.5 C-92.90076172 1332.88712902 -98.174677 1337.41223412 -103.44921875 1341.94921875 C-110.71031003 1348.19427321 -118.00553429 1354.3963115 -125.4375 1360.4375 C-130.30129025 1364.39508188 -135.05881231 1368.46542446 -139.80834961 1372.55834961 C-143.33298919 1375.58945289 -146.89039882 1378.56985316 -150.5 1381.5 C-155.90076172 1385.88712902 -161.174677 1390.41223412 -166.44921875 1394.94921875 C-173.71031003 1401.19427321 -181.00553429 1407.3963115 -188.4375 1413.4375 C-193.30129025 1417.39508188 -198.05881231 1421.46542446 -202.80834961 1425.55834961 C-207.1980035 1429.33334391 -211.66114771 1433.00728461 -216.15625 1436.65625 C-219.47686486 1439.39302049 -222.74046782 1442.1910295 -226 1445 C-230.12468204 1448.55453161 -234.27207712 1452.06792143 -238.5 1455.5 C-243.90076172 1459.88712902 -249.174677 1464.41223412 -254.44921875 1468.94921875 C-261.71031003 1475.19427321 -269.00553429 1481.3963115 -276.4375 1487.4375 C-281.30129025 1491.39508188 -286.05881231 1495.46542446 -290.80834961 1499.55834961 C-294.33298919 1502.58945289 -297.89039882 1505.56985316 -301.5 1508.5 C-306.90076172 1512.88712902 -312.174677 1517.41223412 -317.44921875 1521.94921875 C-324.71031003 1528.19427321 -332.00553429 1534.3963115 -339.4375 1540.4375 C-344.30129025 1544.39508188 -349.05881231 1548.46542446 -353.80834961 1552.55834961 C-357.33298919 1555.58945289 -360.89039882 1558.56985316 -364.5 1561.5 C-369.96483942 1565.93816101 -375.30649447 1570.51201679 -380.640625 1575.10546875 C-381.45950195 1575.80808838 -381.45950195 1575.80808838 -382.29492188 1576.52490234 C-383.50712204 1577.57360129 -384.71069205 1578.63231224 -385.90820312 1579.69775391 C-386.8430957 1580.52218994 -386.8430957 1580.52218994 -387.796875 1581.36328125 C-388.36245117 1581.86770752 -388.92802734 1582.37213379 -389.51074219 1582.8918457 C-391 1584 -391 1584 -393 1584 C-392.22998928 1578.91862956 -391.10186418 1573.9660151 -389.90576172 1568.97265625 C-389.68993061 1568.06628922 -389.4740995 1567.15992218 -389.25172806 1566.22608948 C-388.52244709 1563.17081677 -387.78903311 1560.1165592 -387.0546875 1557.0625 C-386.79617886 1555.98546814 -386.53767021 1554.90843628 -386.27132797 1553.79876709 C-381.44216681 1533.70704463 -376.43755099 1513.66092689 -371.3828125 1493.625 C-371.19568034 1492.88323265 -371.00854818 1492.1414653 -370.81574535 1491.37722015 C-368.1198257 1480.69301153 -365.41764087 1470.01038936 -362.71417999 1459.32808685 C-359.97104089 1448.48884219 -357.22900687 1437.64932155 -354.49264038 1426.80836487 C-353.57989779 1423.19280641 -352.66609783 1419.57752331 -351.7494545 1415.96295166 C-348.39210145 1402.72340021 -345.06870983 1389.48179922 -342.04052734 1376.16210938 C-338.64304938 1361.22548815 -334.87883159 1346.38453517 -331.11784935 1331.53640175 C-330.11346654 1327.56808918 -329.11260622 1323.59888838 -328.1114502 1319.62976074 C-325.36342006 1308.73761035 -322.6101804 1297.84677837 -319.85683441 1286.95597076 C-317.32727299 1276.95010532 -314.79890842 1266.94394109 -312.2747283 1256.93671656 C-311.2858436 1253.01676306 -310.29590669 1249.09708242 -309.30323792 1245.17808533 C-305.74904922 1231.14557265 -302.20796952 1217.11673053 -299 1203 C-295.61790226 1188.11701499 -291.86515203 1173.33052905 -288.11784935 1158.53640175 C-287.11346654 1154.56808918 -286.11260622 1150.59888838 -285.1114502 1146.62976074 C-282.36342006 1135.73761035 -279.6101804 1124.84677837 -276.85683441 1113.95597076 C-274.32727299 1103.95010532 -271.79890842 1093.94394109 -269.2747283 1083.93671656 C-268.2858436 1080.01676306 -267.29590669 1076.09708242 -266.30323792 1072.17808533 C-262.11929503 1055.65919538 -258.02791193 1039.13035384 -254.26081848 1022.51000977 C-252.53393181 1014.90273777 -250.65903867 1007.33269031 -248.75708008 999.76757812 C-248.16581076 997.41365208 -247.57985486 995.05843885 -246.99414062 992.703125 C-246.61488656 991.1874241 -246.23534215 989.6717958 -245.85546875 988.15625 C-245.68258835 987.46067993 -245.50970795 986.76510986 -245.33158875 986.04846191 C-244.1150914 981.23018281 -244.1150914 981.23018281 -243 979 C-243.65355469 978.77699219 -244.30710937 978.55398438 -244.98046875 978.32421875 C-249.03129103 976.54772619 -252.6011151 974.20614172 -256.3125 971.8125 C-258.01650987 970.72460664 -259.72095812 969.63739972 -261.42578125 968.55078125 C-262.32893066 967.97408691 -263.23208008 967.39739258 -264.16259766 966.80322266 C-269.08956475 963.67204223 -274.04605578 960.58825012 -279 957.5 C-286.17905516 953.01939465 -293.34932937 948.52577 -300.5 944 C-310.61415344 937.60001664 -320.76629948 931.26124041 -330.91943359 924.92333984 C-335.94746487 921.78410777 -340.97365341 918.64192849 -346 915.5 C-347.99999085 914.24998536 -349.99999086 912.99998538 -352 911.75 C-356 909.25 -360 906.75 -364 904.25 C-364.99040283 903.6310083 -365.98080566 903.0120166 -367.0012207 902.37426758 C-368.99718828 901.12676753 -370.99311939 899.87920912 -372.98901367 898.6315918 C-378.05040916 895.46785818 -383.11247394 892.30520439 -388.17578125 889.14453125 C-398.06279278 882.97142253 -407.93984891 876.78374244 -417.78955078 870.55126953 C-427.14256726 864.6375846 -436.5324913 858.78295976 -445.91943359 852.92333984 C-450.94746487 849.78410777 -455.97365341 846.64192849 -461 843.5 C-462.99999085 842.24998536 -464.99999086 840.99998538 -467 839.75 C-479 832.25 -491 824.75 -503 817.25 C-503.99040283 816.6310083 -504.98080566 816.0120166 -506.0012207 815.37426758 C-507.99718828 814.12676753 -509.99311939 812.87920912 -511.98901367 811.6315918 C-517.05040916 808.46785818 -522.11247394 805.30520439 -527.17578125 802.14453125 C-537.06279278 795.97142253 -546.93984891 789.78374244 -556.78955078 783.55126953 C-566.14256726 777.6375846 -575.5324913 771.78295976 -584.91943359 765.92333984 C-589.94746487 762.78410777 -594.97365341 759.64192849 -600 756.5 C-601.99999085 755.24998536 -603.99999086 753.99998538 -606 752.75 C-610 750.25 -614 747.75 -618 745.25 C-618.99040283 744.6310083 -619.98080566 744.0120166 -621.0012207 743.37426758 C-622.99718828 742.12676753 -624.99311939 740.87920912 -626.98901367 739.6315918 C-632.05040916 736.46785818 -637.11247394 733.30520439 -642.17578125 730.14453125 C-652.06279278 723.97142253 -661.93984891 717.78374244 -671.78955078 711.55126953 C-681.14256726 705.6375846 -690.5324913 699.78295976 -699.91943359 693.92333984 C-705.94373399 690.16209095 -711.96553882 686.39684818 -717.98779297 682.63232422 C-723.04961403 679.46837635 -728.11207148 676.30545562 -733.17578125 673.14453125 C-745.47372247 665.46610643 -757.75120907 657.75660463 -770 650 C-767.04341735 648.33032086 -764.71259572 647.69006087 -761.3359375 647.4375 C-759.92610596 647.32728516 -759.92610596 647.32728516 -758.48779297 647.21484375 C-756.94696045 647.10849609 -756.94696045 647.10849609 -755.375 647 C-754.28977051 646.91878906 -753.20454102 646.83757813 -752.08642578 646.75390625 C-741.94994596 646.0170169 -731.80306166 645.44663907 -721.65618896 644.875 C-712.042566 644.33253686 -702.4573511 643.65556177 -692.87011719 642.75219727 C-682.50040165 641.80619792 -672.10519964 641.26132921 -661.70898438 640.69726562 C-653.58993955 640.27916916 -653.58993955 640.27916916 -645.5 639.5 C-639.39587075 638.75342582 -633.24629071 638.51733427 -627.10864258 638.18432617 C-616.55741856 637.6088468 -606.02167939 636.99159745 -595.5 636 C-585.27199541 635.0384811 -575.031602 634.44784123 -564.77630615 633.87600708 C-554.78416637 633.31632033 -544.82099388 632.60736685 -534.85546875 631.6796875 C-528.08201818 631.06034441 -521.31871255 630.68825157 -514.52441406 630.39208984 C-508.45568537 630.11190296 -502.42350854 629.62571064 -496.375 629.0625 C-484.83620191 627.99050713 -473.28221214 627.32528752 -461.71240234 626.69750977 C-453.59164667 626.27929777 -453.59164667 626.27929777 -445.5 625.5 C-439.39587075 624.75342582 -433.24629071 624.51733427 -427.10864258 624.18432617 C-416.55743545 623.60884772 -406.02163908 622.9919061 -395.5 622 C-384.25323127 620.93973378 -372.98740044 620.30919445 -361.70898438 619.69726562 C-353.58993955 619.27916916 -353.58993955 619.27916916 -345.5 618.5 C-339.39587075 617.75342582 -333.24629071 617.51733427 -327.10864258 617.18432617 C-316.55743545 616.60884772 -306.02163908 615.9919061 -295.5 615 C-284.25323127 613.93973378 -272.98740044 613.30919445 -261.70898438 612.69726562 C-253.58993955 612.27916916 -253.58993955 612.27916916 -245.5 611.5 C-239.3946088 610.75327148 -233.24371609 610.51714918 -227.10479736 610.18405151 C-216.26246319 609.5930103 -205.43838201 608.9409985 -194.625 607.9375 C-179.76249982 606.56738597 -164.92898272 605.77754827 -150 606 C-149.90497696 605.40339066 -149.80995392 604.80678131 -149.71205139 604.1920929 C-148.3454194 596.14153169 -146.39080304 588.26966371 -144.35970879 580.36797142 C-143.72762018 577.90859028 -143.10035464 575.44801886 -142.47413635 572.98713684 C-141.1327719 567.7195194 -139.78544861 562.45343579 -138.4375 557.1875 C-136.68206355 550.32787383 -134.92957049 543.46750937 -133.18359375 536.60546875 C-132.96264227 535.73727131 -132.74169079 534.86907387 -132.51404381 533.97456741 C-129.73739545 523.04778618 -127.05234333 512.10541635 -124.49349594 501.12568855 C-120.03605203 482.00191056 -115.26101383 462.9608392 -110.45703125 443.921875 C-110.16688302 442.77168046 -110.16688302 442.77168046 -109.87087321 441.59824967 C-106.85605848 429.64765893 -103.83478661 417.69870289 -100.8125 405.75 C-98.16722365 395.29143639 -95.52296755 384.83261859 -92.88368434 374.37254071 C-91.93286993 370.60478495 -90.98100061 366.83730329 -90.02634621 363.07051849 C-86.57061378 349.43451598 -83.13836306 335.79927302 -80.02026367 322.08105469 C-76.63047134 307.17125231 -72.87199186 292.35753229 -69.11784935 277.53640175 C-68.11346654 273.56808918 -67.11260622 269.59888838 -66.1114502 265.62976074 C-63.36342006 254.73761035 -60.6101804 243.84677837 -57.85683441 232.95597076 C-55.32727299 222.95010532 -52.79890842 212.94394109 -50.2747283 202.93671656 C-49.2858436 199.01676306 -48.29590669 195.09708242 -47.30323792 191.17808533 C-43.47013717 176.04438278 -39.70269933 160.90709178 -36.24138355 145.68292713 C-33.28843332 132.7627989 -30.01569273 119.92227983 -26.76090789 107.07570434 C-25.85311106 103.48990519 -24.94861355 99.90327386 -24.04377747 96.31672668 C-22.34012185 89.56567547 -20.63402751 82.81524354 -18.92680198 76.06509429 C-15.85757286 63.92960099 -12.79171494 51.79325629 -9.728154 39.65633088 C-8.65594627 35.40902513 -7.5823492 31.16207377 -6.50759256 26.91541231 C-6.00268423 24.91970295 -5.49832488 22.92385581 -4.99420166 20.927948 C-4.38108138 18.50062976 -3.7670689 16.07353664 -3.1519928 13.64671326 C-2.88162201 12.57515991 -2.61125122 11.50360657 -2.33268738 10.39958191 C-2.09804873 9.47192111 -1.86341009 8.54426031 -1.62166119 7.58848858 C-1.01652006 5.06878663 -0.49027476 2.54431023 0 0 Z " fill="#FEFEFE" transform="translate(921,193)"/>
<path d="M0 0 C2.36142405 2.36142405 3.066498 4.31156504 4.29638672 7.41625977 C4.75295654 8.56109833 5.20952637 9.70593689 5.67993164 10.88546753 C6.17990127 12.15409367 6.67981826 13.42274055 7.1796875 14.69140625 C7.70465609 16.01233601 8.23013906 17.33306143 8.75610352 18.65359497 C9.88036904 21.47869063 11.00163641 24.30494984 12.12054443 27.13217163 C14.77089178 33.82808609 17.43685609 40.51778492 20.10232925 47.20768929 C20.70253655 48.71427288 21.30255939 50.22092998 21.90240097 51.72765923 C27.48344392 65.74581169 33.15338749 79.72607061 38.875 93.6875 C40.50173897 97.65997749 42.12800802 101.63264709 43.75390625 105.60546875 C44.13035782 106.52519974 44.50680939 107.44493073 44.89466858 108.39253235 C48.36379013 116.87536501 51.7736423 125.38095432 55.16479492 133.89526367 C60.30005438 146.77922388 65.4950322 159.63900814 70.6875 172.5 C71.43239839 174.34516592 72.17729675 176.19033185 72.92219067 178.03549957 C74.71007772 182.46424158 76.49800437 186.8929676 78.286026 191.32165527 C83.50491625 204.24859247 88.71803844 217.1778537 93.93063354 230.10733032 C96.55513055 236.61720212 99.17986323 243.1269789 101.8046875 249.63671875 C102.06351904 250.27863852 102.32235058 250.92055828 102.5890255 251.58193016 C110.60037547 271.45033976 118.61750443 291.31641775 126.63459778 311.18251038 C130.2735458 320.19970974 133.91222658 329.21701691 137.55078125 338.234375 C137.82060066 338.90306295 138.09042007 339.57175091 138.36841583 340.26070213 C139.70376379 343.57007096 141.03910817 346.87944123 142.37445068 350.18881226 C144.84206013 356.30426896 147.30970389 362.41971182 149.77734375 368.53515625 C150.60278335 370.58081049 151.42822282 372.62646478 152.25366211 374.67211914 C152.59288193 375.51279434 152.93210175 376.35346954 153.28160095 377.21961975 C153.51867264 377.80714523 153.75574432 378.39467072 154 379 C164.89235242 379.11483862 175.69236227 378.808563 186.5625 378.125 C188.06770477 378.03379535 189.57291316 377.94265043 191.078125 377.8515625 C200.11972406 377.29460613 209.13900646 376.59701859 218.15844727 375.75048828 C227.49997001 374.89891988 236.85944629 374.39815648 246.22369385 373.87600708 C256.21583363 373.31632033 266.17900612 372.60736685 276.14453125 371.6796875 C282.91798182 371.06034441 289.68128745 370.68825157 296.47558594 370.39208984 C302.54432212 370.11190261 308.57647417 369.62555036 314.625 369.0625 C324.40605838 368.15609487 334.1938463 367.54679003 344 367 C353.51412591 366.46880915 363.01129101 365.89174358 372.5 365 C382.73276628 364.03833033 392.97782018 363.4481078 403.23779297 362.875 C412.00577683 362.38287023 420.75551925 361.82180142 429.5 361 C439.73276628 360.03833033 449.97782018 359.4481078 460.23779297 358.875 C469.00577683 358.38287023 477.75551925 357.82180142 486.5 357 C496.72428525 356.03912738 506.96093996 355.44684236 517.21261597 354.87701416 C527.41494623 354.30767536 537.58870229 353.61101484 547.75976562 352.609375 C553.2021868 352.08744134 558.53149389 351.92290122 564 352 C561.32649474 355.54208647 558.60528783 358.31740975 555.125 361.0625 C550.67520578 364.62826844 546.31523539 368.27266974 542 372 C537.01113861 376.30034727 531.9577672 380.50487134 526.84375 384.65625 C523.52313514 387.39302049 520.25953218 390.1910295 517 393 C512.01059233 397.29972713 506.95778844 401.50485409 501.84375 405.65625 C498.52313514 408.39302049 495.25953218 411.1910295 492 414 C487.01059233 418.29972713 481.95778844 422.50485409 476.84375 426.65625 C473.52313514 429.39302049 470.25953218 432.1910295 467 435 C462.01059233 439.29972713 456.95778844 443.50485409 451.84375 447.65625 C448.52313514 450.39302049 445.25953218 453.1910295 442 456 C437.87531796 459.55453161 433.72792288 463.06792143 429.5 466.5 C424.09923828 470.88712902 418.825323 475.41223412 413.55078125 479.94921875 C406.28968997 486.19427321 398.99446571 492.3963115 391.5625 498.4375 C386.69870975 502.39508188 381.94118769 506.46542446 377.19165039 510.55834961 C373.66701081 513.58945289 370.10960118 516.56985316 366.5 519.5 C361.09923828 523.88712902 355.825323 528.41223412 350.55078125 532.94921875 C343.28968997 539.19427321 335.99446571 545.3963115 328.5625 551.4375 C323.69870975 555.39508188 318.94118769 559.46542446 314.19165039 563.55834961 C309.8019965 567.33334391 305.33885229 571.00728461 300.84375 574.65625 C297.52313514 577.39302049 294.25953218 580.1910295 291 583 C286.87531796 586.55453161 282.72792288 590.06792143 278.5 593.5 C273.03516058 597.93816101 267.69350553 602.51201679 262.359375 607.10546875 C261.81345703 607.57388184 261.26753906 608.04229492 260.70507812 608.52490234 C259.49287796 609.57360129 258.28930795 610.63231224 257.09179688 611.69775391 C256.46853516 612.24737793 255.84527344 612.79700195 255.203125 613.36328125 C254.35476074 614.11992065 254.35476074 614.11992065 253.48925781 614.8918457 C252 616 252 616 250 616 C254.20195557 627.43242947 258.66883778 638.74370564 263.25469971 650.02713013 C264.91621946 654.11542555 266.57294333 658.20566035 268.23016357 662.29570007 C269.11765599 664.48583176 270.00539586 666.67586318 270.89337158 668.86579895 C275.50714183 680.24508196 280.10257709 691.63174087 284.6958313 703.01931763 C286.1393857 706.5981649 287.5832133 710.17690186 289.02709961 713.75561523 C296.7145984 732.81001958 304.39818826 751.86600017 312.08135986 770.92214966 C319.55125417 789.44930526 327.02417251 807.97523745 334.5 826.5 C341.9384983 844.93243178 349.37462217 863.36581862 356.80767822 881.80044556 C358.10729825 885.02361168 359.4069895 888.24674907 360.70670128 891.4698782 C365.85862723 904.24611567 371.00954509 917.022758 376.15768433 929.80052185 C378.15439105 934.75634202 380.15151978 939.71199209 382.14874458 944.66760349 C383.76579791 948.68002491 385.38231453 952.69266193 386.99834633 956.70549488 C387.75568226 958.58569267 388.51342427 960.46572633 389.27127075 962.34571838 C390.22504136 964.71250434 391.17777692 967.07970773 392.12936401 969.44737244 C394.14596554 974.45537045 396.17866398 979.45303963 398.29589844 984.41943359 C398.63462982 985.21870773 398.97336121 986.01798187 399.32235718 986.84147644 C399.93267968 988.27426066 400.55085133 989.70374123 401.17886353 991.12886047 C403.11060459 995.66818622 403.11060459 995.66818622 402 999 C400.906875 998.30777344 399.81375 997.61554687 398.6875 996.90234375 C389.47544549 991.07397886 380.24736611 985.27218932 371 979.5 C363.82122854 975.01893648 356.65067363 970.5257719 349.5 966 C339.38584656 959.60001664 329.23370052 953.26124041 319.08056641 946.92333984 C314.05253513 943.78410777 309.02634659 940.64192849 304 937.5 C302.00000915 936.24998536 300.00000914 934.99998538 298 933.75 C286 926.25 274 918.75 262 911.25 C261.00959717 910.6310083 260.01919434 910.0120166 258.9987793 909.37426758 C257.00281172 908.12676753 255.00688061 906.87920912 253.01098633 905.6315918 C247.94959084 902.46785818 242.88752606 899.30520439 237.82421875 896.14453125 C227.93720722 889.97142253 218.06015109 883.78374244 208.21044922 877.55126953 C198.85743274 871.6375846 189.4675087 865.78295976 180.08056641 859.92333984 C175.05253513 856.78410777 170.02634659 853.64192849 165 850.5 C163.00000915 849.24998536 161.00000914 847.99998538 159 846.75 C155 844.25 151 841.75 147 839.25 C146.00959717 838.6310083 145.01919434 838.0120166 143.9987793 837.37426758 C142.00281172 836.12676753 140.00688061 834.87920912 138.01098633 833.6315918 C132.94959084 830.46785818 127.88752606 827.30520439 122.82421875 824.14453125 C112.95032274 817.97961141 103.08495296 811.8023221 93.25 805.57543945 C85.5531252 800.70670722 77.82563382 795.88712118 70.09375 791.07421875 C65.34839485 788.11549932 60.62642763 785.14188633 56 782 C52.13955021 783.63860819 49.1956514 786.21871188 46.0625 788.9375 C44.8998054 789.93367057 43.73704306 790.92976209 42.57421875 791.92578125 C41.9817334 792.4357666 41.38924805 792.94575195 40.77880859 793.47119141 C37.98879184 795.86908942 35.1828796 798.24806595 32.375 800.625 C31.83359375 801.08390625 31.2921875 801.5428125 30.734375 802.015625 C27.37242772 804.8591033 23.97985928 807.66058287 20.5625 810.4375 C15.69870975 814.39508188 10.94118769 818.46542446 6.19165039 822.55834961 C1.8019965 826.33334391 -2.66114771 830.00728461 -7.15625 833.65625 C-10.47686486 836.39302049 -13.74046782 839.1910295 -17 842 C-21.98940767 846.29972713 -27.04221156 850.50485409 -32.15625 854.65625 C-35.47686486 857.39302049 -38.74046782 860.1910295 -42 863 C-46.12468204 866.55453161 -50.27207712 870.06792143 -54.5 873.5 C-59.90076172 877.88712902 -65.174677 882.41223412 -70.44921875 886.94921875 C-77.71031003 893.19427321 -85.00553429 899.3963115 -92.4375 905.4375 C-97.30129025 909.39508188 -102.05881231 913.46542446 -106.80834961 917.55834961 C-111.1980035 921.33334391 -115.66114771 925.00728461 -120.15625 928.65625 C-123.47686486 931.39302049 -126.74046782 934.1910295 -130 937 C-134.98940767 941.29972713 -140.04221156 945.50485409 -145.15625 949.65625 C-148.47686486 952.39302049 -151.74046782 955.1910295 -155 958 C-159.12468204 961.55453161 -163.27207712 965.06792143 -167.5 968.5 C-172.90076172 972.88712902 -178.174677 977.41223412 -183.44921875 981.94921875 C-190.71031003 988.19427321 -198.00553429 994.3963115 -205.4375 1000.4375 C-210.30129025 1004.39508188 -215.05881231 1008.46542446 -219.80834961 1012.55834961 C-223.33298919 1015.58945289 -226.89039882 1018.56985316 -230.5 1021.5 C-234.78378342 1024.98017855 -238.99868476 1028.53172984 -243.1875 1032.125 C-243.78336914 1032.63579102 -244.37923828 1033.14658203 -244.99316406 1033.67285156 C-248.89316055 1037.02532765 -252.74871626 1040.42274093 -256.546875 1043.890625 C-258 1045 -258 1045 -260 1045 C-258.72137521 1037.44105227 -257.10586841 1030.03269738 -255.20605469 1022.60717773 C-254.93254684 1021.52567444 -254.659039 1020.44417114 -254.37724304 1019.32989502 C-253.78688447 1016.9975595 -253.19483505 1014.66565144 -252.60124969 1012.33413506 C-251.65512869 1008.61781499 -250.71353509 1004.90037246 -249.77301025 1001.18263245 C-247.93860241 993.93487984 -246.09929068 986.68837925 -244.25904083 979.44210815 C-241.77048813 969.64216144 -239.2853865 959.84134744 -236.80466461 950.03941536 C-235.88879727 946.42471609 -234.96952966 942.81089424 -234.04998779 939.1971283 C-231.28774463 928.30927336 -228.60489783 917.41260435 -226.11425781 906.45922852 C-222.6290209 891.15346886 -218.76872126 875.94494843 -214.91592026 860.72868538 C-213.88351896 856.64826159 -212.85462542 852.5669535 -211.82543945 848.48571777 C-208.99999396 837.28394903 -206.1693527 826.08349476 -203.33860779 814.88306427 C-200.7381406 804.59354287 -198.13886376 794.30372429 -195.54376125 784.01284838 C-194.52692632 779.98111353 -193.50903932 775.94965118 -192.48843384 771.91886902 C-188.51238447 756.2150133 -184.59641138 740.50893578 -180.99882412 724.71298122 C-179.17200149 716.6953821 -177.22712251 708.71506714 -175.18672371 700.74939156 C-174.63268851 698.58405399 -174.08343218 696.41754689 -173.53526306 694.25071716 C-171.98288269 688.115719 -170.42605095 681.9818827 -168.8581543 675.85083008 C-167.88459919 672.04251396 -166.91899733 668.23225753 -165.95858574 664.42060661 C-165.5951833 662.98489934 -165.22876022 661.54995301 -164.85920906 660.11581612 C-164.34923874 658.13585008 -163.85024256 656.15306714 -163.35180664 654.17016602 C-163.06568008 653.04723648 -162.77955353 651.92430695 -162.48475647 650.76734924 C-161.76098907 647.92507706 -161.76098907 647.92507706 -163 645 C-165.26543957 643.27896368 -165.26543957 643.27896368 -168.1171875 641.62890625 C-169.1892041 640.97849365 -170.2612207 640.32808105 -171.36572266 639.65795898 C-172.53548016 638.95946995 -173.70523931 638.26098369 -174.875 637.5625 C-176.67533605 636.47403826 -178.47375059 635.38244582 -180.27218628 634.29084778 C-181.47804414 633.55933911 -182.68452891 632.8288629 -183.89163208 632.09941101 C-188.8424626 629.10657614 -193.74415881 626.04275901 -198.625 622.9375 C-205.62920107 618.49396646 -212.65195706 614.08125613 -219.6875 609.6875 C-220.69337158 609.05924316 -221.69924316 608.43098633 -222.7355957 607.78369141 C-225.8235068 605.85543573 -228.91170137 603.92763493 -232 602 C-243.94654283 594.54328158 -255.88909636 587.08137153 -267.78955078 579.55126953 C-277.14256726 573.6375846 -286.5324913 567.78295976 -295.91943359 561.92333984 C-301.94373399 558.16209095 -307.96553882 554.39684818 -313.98779297 550.63232422 C-319.04961403 547.46837635 -324.11207148 544.30545562 -329.17578125 541.14453125 C-339.06279278 534.97142253 -348.93984891 528.78374244 -358.78955078 522.55126953 C-368.14256726 516.6375846 -377.5324913 510.78295976 -386.91943359 504.92333984 C-392.94373399 501.16209095 -398.96553882 497.39684818 -404.98779297 493.63232422 C-410.04961403 490.46837635 -415.11207148 487.30545562 -420.17578125 484.14453125 C-430.06279278 477.97142253 -439.93984891 471.78374244 -449.78955078 465.55126953 C-456.07621279 461.57636598 -462.37948856 457.62842114 -468.6875 453.6875 C-470.18083862 452.75393677 -470.18083862 452.75393677 -471.7043457 451.80151367 C-477.02656066 448.47592925 -482.35383069 445.15874757 -487.6875 441.8515625 C-488.77587158 441.17520752 -489.86424316 440.49885254 -490.9855957 439.80200195 C-493.07102775 438.50621959 -495.15802876 437.21295781 -497.24682617 435.92260742 C-498.19017822 435.33584229 -499.13353027 434.74907715 -500.10546875 434.14453125 C-500.93199951 433.63253174 -501.75853027 433.12053223 -502.61010742 432.59301758 C-505.20018917 430.866561 -507.59632076 428.97574036 -510 427 C-503.10336019 426.4444393 -496.20634837 425.89367416 -489.30908203 425.34594727 C-486.97208374 425.15982743 -484.63516656 424.97268565 -482.29833984 424.78442383 C-470.06303002 423.79939996 -457.83998006 422.88079761 -445.57720947 422.32081604 C-439.53305293 422.04210357 -433.52233855 421.58765633 -427.5 421 C-420.33513393 420.33766083 -413.18866765 419.81083414 -406 419.5 C-399.10256513 419.19960806 -392.24906182 418.70258254 -385.375 418.0625 C-373.83620191 416.99050713 -362.28221214 416.32528752 -350.71240234 415.69750977 C-342.59164667 415.27929777 -342.59164667 415.27929777 -334.5 414.5 C-328.39587075 413.75342582 -322.24629071 413.51733427 -316.10864258 413.18432617 C-305.55743545 412.60884772 -295.02163908 411.9919061 -284.5 411 C-273.25323127 409.93973378 -261.98740044 409.30919445 -250.70898438 408.69726562 C-242.6171524 408.28209276 -242.6171524 408.28209276 -234.5546875 407.50390625 C-226.65385286 406.53624641 -218.65599771 406.30885994 -210.7109375 405.875 C-200.03942139 405.29973211 -200.03942139 405.29973211 -189.40722656 404.24560547 C-183.99206648 403.69310536 -178.54228534 403.47897098 -173.1078186 403.18405151 C-162.4899499 402.60602963 -151.89765534 401.96870465 -141.3125 400.9375 C-127.24791535 399.58340342 -113.11816509 399.34803353 -99 399 C-98.90384399 398.26051117 -98.80768799 397.52102234 -98.70861816 396.75912476 C-97.37297102 387.27455888 -95.19703117 378.12559175 -92.84375 368.8515625 C-92.42449734 367.18113422 -92.00575389 365.51057807 -91.58747864 363.83990479 C-90.46500817 359.36290113 -89.33518741 354.88778272 -88.20395279 350.41298676 C-87.01717985 345.71280332 -85.83760526 341.01081324 -84.65698242 336.30908203 C-80.31725113 319.03834555 -75.94818366 301.77505304 -71.56093216 284.51633072 C-70.95908423 282.14870128 -70.35750016 279.78100491 -69.75595093 277.41329956 C-68.08490606 270.83754224 -66.41254598 264.26215023 -64.72956657 257.68943596 C-61.08426329 243.44588174 -57.55097696 229.18324165 -54.18313408 214.871418 C-49.50478734 195.00128498 -44.57344371 175.19851197 -39.578125 155.40625 C-39.39037624 154.66217471 -39.20262748 153.91809941 -39.00918937 153.15147638 C-36.29204368 142.38373197 -33.56928666 131.61740902 -30.84502411 120.85146332 C-28.08550638 109.946183 -25.3268526 99.04068781 -22.57398105 88.13372755 C-21.65449139 84.49122494 -20.73394592 80.84899712 -19.81058502 77.20747375 C-15.77276153 61.28244049 -11.85420105 45.33917285 -8.21705627 29.31703186 C-6.81798185 23.16059257 -5.30223927 17.04112447 -3.6875 10.9375 C-3.43677734 9.96619141 -3.18605469 8.99488281 -2.92773438 7.99414062 C-1.12795387 1.12795387 -1.12795387 1.12795387 0 0 Z " fill="#000000" transform="translate(942,485)"/>
<path d="M0 0 C11.74013771 5.36029972 21.86278922 15.3631277 28.96875 26.04296875 C28.96875 26.70296875 28.96875 27.36296875 28.96875 28.04296875 C32.0354329 26.31795962 34.78561951 24.41436273 37.53125 22.23046875 C45.54275072 16.23311643 53.12003175 12.05665216 63.33984375 12.65625 C68.99050506 13.48747655 72.41598574 15.77476526 75.8671875 20.328125 C82.55376382 30.7373697 80.18352364 42.3802504 77.72265625 53.79296875 C77.16045813 56.21653784 76.58911397 58.63378828 75.96875 61.04296875 C77.03867188 61.12804687 78.10859375 61.213125 79.2109375 61.30078125 C99.9413861 63.92960953 126.90548892 75.20993219 141.96875 90.04296875 C142.53851562 90.55214844 143.10828125 91.06132813 143.6953125 91.5859375 C146.46939793 94.35260558 146.97006518 96.05954008 147.28125 99.98046875 C146.08861554 105.49378768 142.47594333 108.02720393 137.96875 111.04296875 C135.58239412 112.35611507 133.20526404 113.61515861 130.76953125 114.828125 C130.07281311 115.17533096 129.37609497 115.52253693 128.65826416 115.88026428 C121.44637298 119.40336936 114.02743475 122.29448881 106.51876831 125.11486816 C102.56254315 126.60377406 98.61903295 128.1255655 94.67578125 129.6484375 C93.52626732 130.09215195 93.52626732 130.09215195 92.35353088 130.54483032 C83.38829926 134.02092955 74.6090555 137.82297113 65.96875 142.04296875 C65.2046582 142.41276855 64.44056641 142.78256836 63.65332031 143.16357422 C30.05606408 159.60138918 -2.23347746 185.01471124 -25.18359375 214.73046875 C-27.03125 217.04296875 -27.03125 217.04296875 -28.97265625 218.91796875 C-30.70697549 220.59408936 -31.89823641 221.91668447 -33.03125 224.04296875 C-32.76120127 232.36276777 -28.77754582 240.71357146 -25.86523438 248.38867188 C-23.57329606 254.6798519 -21.40224945 261.2611729 -22.03125 268.04296875 C-23.83600012 270.44323678 -24.69648761 270.96326342 -27.65625 271.66796875 C-33.78615278 270.53280157 -38.19384927 266.58206998 -41.80078125 261.59765625 C-43.29940845 259.11638488 -44.67738458 256.60577879 -46.03125 254.04296875 C-47.35235997 251.7024725 -48.69196552 249.37315241 -50.03125 247.04296875 C-56.32371906 255.21126611 -62.59469365 263.38876563 -68.65625 271.73046875 C-90.81918004 302.1220313 -115.69692389 333.67632986 -153.03125 345.04296875 C-154.16046875 345.39488281 -154.16046875 345.39488281 -155.3125 345.75390625 C-162.97399694 347.78714967 -171.15236085 347.69922847 -179.03125 348.04296875 C-178.53496094 348.45546875 -178.03867187 348.86796875 -177.52734375 349.29296875 C-173.27824615 352.90510485 -169.47146981 356.62701312 -165.87890625 360.890625 C-164.57232377 362.41266929 -163.22084826 363.89670748 -161.83984375 365.3515625 C-147.6827095 380.32315118 -147.6827095 380.32315118 -147.53125 389.73046875 C-148.03125 393.04296875 -148.03125 393.04296875 -149.03125 394.04296875 C-155.39493964 395.14969738 -159.00250797 392.63258253 -164.203125 389.1015625 C-168.60664303 385.89623929 -172.83212562 382.50976583 -177.03125 379.04296875 C-178.57088624 377.81125976 -180.11259926 376.58214279 -181.65625 375.35546875 C-184.66806004 372.95447822 -187.65694263 370.52969594 -190.62109375 368.0703125 C-202.87683103 357.9371457 -215.6945851 348.7061015 -229.03125 340.04296875 C-229.0003125 341.20699219 -228.969375 342.37101562 -228.9375 343.5703125 C-228.96096508 356.9190123 -234.51713073 370.9559959 -242.859375 381.3125 C-245.77976881 384.12107693 -247.62124319 384.96520884 -251.65625 385.73046875 C-256.09493342 384.8262925 -257.28888855 383.65133908 -260.03125 380.04296875 C-269.45959996 365.54955052 -272.01642749 346.37317005 -275.49560547 329.72607422 C-279.08780663 312.12004282 -279.08780663 312.12004282 -285.21875 295.29296875 C-285.5077417 294.6494043 -285.7967334 294.00583984 -286.09448242 293.34277344 C-287.7908631 289.5995902 -289.58449074 285.91015277 -291.4140625 282.23046875 C-291.81729736 281.40901367 -292.22053223 280.58755859 -292.63598633 279.74121094 C-293.41268977 278.1667654 -294.20314734 276.59899122 -295.01049805 275.04003906 C-297.23730256 270.53417383 -298.14041312 267.10654733 -298.44921875 262.07421875 C-299.13352944 257.41454728 -300.39357217 255.15409905 -304.15313721 252.25253296 C-307.20448559 250.13672879 -310.35081972 248.20702416 -313.53125 246.29296875 C-314.88940297 245.43644931 -316.24542093 244.57653583 -317.59936523 243.71337891 C-321.04939714 241.52765771 -324.52557591 239.38876622 -328.01580811 237.26794434 C-329.94237542 236.09698628 -331.8648307 234.9196249 -333.78564453 233.73925781 C-338.30625233 230.96161385 -342.82887312 228.18742134 -347.36181641 225.42993164 C-365.76840044 214.17762111 -388.96646742 198.11337798 -395.52734375 176.40625 C-396.68042545 170.9983862 -396.68923844 166.05563927 -394.96875 160.79296875 C-390.70529122 154.74160791 -385.32533429 150.63730411 -378.03125 149.04296875 C-362.31787916 147.06851378 -347.54196353 154.22552595 -333.95605469 161.12182617 C-316.93196589 170.32416315 -316.93196589 170.32416315 -298.03125 172.04296875 C-296.72398694 170.93326586 -296.72398694 170.93326586 -296.59375 168.16796875 C-296.86134003 157.21907687 -306.85911109 148.30846719 -314.03125 141.04296875 C-314.56983643 140.48319336 -315.10842285 139.92341797 -315.66333008 139.34667969 C-338.74241677 115.66411158 -379.21025516 90.35525201 -412.91918945 89.74755859 C-413.82241943 89.74191895 -414.72564941 89.7362793 -415.65625 89.73046875 C-416.53434326 89.7248291 -417.41243652 89.71918945 -418.31713867 89.71337891 C-423.47170615 89.69862076 -423.47170615 89.69862076 -428.03125 92.04296875 C-428.76619109 95.90140949 -428.05283463 98.4705829 -426.15625 101.79296875 C-419.44282706 111.59345044 -410.53728892 118.07130552 -400.765625 124.5 C-397.29481807 126.8241136 -394.08139587 129.17937615 -391.03125 132.04296875 C-390.32063471 136.09347592 -390.36429056 138.04252959 -392.65625 141.48046875 C-395.79472915 143.54525767 -397.2993483 143.4512827 -401.03125 143.04296875 C-403.71406123 141.89951814 -406.09483148 140.38712434 -408.53125 138.79296875 C-409.22613525 138.34622803 -409.92102051 137.8994873 -410.63696289 137.43920898 C-424.00186942 128.6310384 -440.33215907 116.43165636 -444.03125 100.04296875 C-444.70890051 94.41490295 -444.85456699 89.78460084 -442.40625 84.60546875 C-437.42562891 79.23164073 -432.16701148 74.63299874 -424.67456055 73.7722168 C-422.03637581 73.67588073 -419.42064438 73.67780367 -416.78125 73.73046875 C-415.36875977 73.75065063 -415.36875977 73.75065063 -413.92773438 73.77124023 C-394.86702322 74.18237304 -376.6875764 80.87774966 -360.04101562 89.94970703 C-357.91812207 91.10450749 -355.78018027 92.2279684 -353.640625 93.3515625 C-342.82250178 99.11236186 -332.85319588 105.72627451 -323.03125 113.04296875 C-322.41797852 113.4925293 -321.80470703 113.94208984 -321.17285156 114.40527344 C-304.79571384 126.45806056 -286.13206487 142.40167125 -281.03125 163.04296875 C-280.21595139 169.32835221 -280.73052421 174.50626742 -284.03125 180.04296875 C-288.72762237 185.29756626 -293.36253359 187.55553343 -300.42578125 188.29296875 C-313.83526045 188.92123132 -325.26039014 183.21778737 -336.80419922 177.18554688 C-340.92179265 175.07303457 -345.10118408 173.09067059 -349.28125 171.10546875 C-350.09166748 170.71593018 -350.90208496 170.3263916 -351.73706055 169.92504883 C-352.49929932 169.56306396 -353.26153809 169.2010791 -354.046875 168.828125 C-354.72008789 168.507229 -355.39330078 168.18633301 -356.08691406 167.85571289 C-359.4539914 166.44825427 -362.46648914 165.91614916 -366.10546875 165.91015625 C-366.85505859 165.90886719 -367.60464844 165.90757812 -368.37695312 165.90625 C-369.14974609 165.91011719 -369.92253906 165.91398437 -370.71875 165.91796875 C-371.50314453 165.91410156 -372.28753906 165.91023438 -373.09570312 165.90625 C-376.8687547 165.54776134 -376.8687547 165.54776134 -380.03125 167.04296875 C-379.64067454 178.17436943 -372.71342592 185.50305535 -365.03125 193.04296875 C-354.86592392 202.34020826 -343.34703055 209.3910798 -331.59423828 216.47900391 C-327.71453968 218.84644049 -323.90086322 221.31100271 -320.09375 223.79296875 C-319.41272217 224.23624512 -318.73169434 224.67952148 -318.0300293 225.13623047 C-316.69454345 226.00591665 -315.35933285 226.87602569 -314.02441406 227.74658203 C-310.68106438 229.9211517 -307.32496057 232.07582197 -303.96875 234.23046875 C-303.36619385 234.61750977 -302.7636377 235.00455078 -302.14282227 235.40332031 C-300.77245326 236.28344463 -299.40187769 237.16324733 -298.03125 238.04296875 C-297.61875 236.80546875 -297.20625 235.56796875 -296.78125 234.29296875 C-296.36166016 233.05160156 -296.36166016 233.05160156 -295.93359375 231.78515625 C-295.3350125 229.96609115 -294.76428491 228.13760888 -294.22265625 226.30078125 C-290.05317926 212.62489673 -282.95363055 201.1422875 -274.03125 190.04296875 C-272.96777344 188.67398437 -272.96777344 188.67398437 -271.8828125 187.27734375 C-263.15379919 176.24790455 -253.21291509 166.57347197 -242.03125 158.04296875 C-241.11730469 157.32753906 -240.20335937 156.61210938 -239.26171875 155.875 C-218.69299781 140.64390258 -193.27261381 132.94208469 -169.46484375 124.29296875 C-137.53794155 112.69295197 -106.95813778 99.44669839 -76.90625 83.66796875 C-39.41802152 64.01069357 -39.41802152 64.01069357 -21.03125 63.04296875 C-21.36898438 62.08777344 -21.70671875 61.13257813 -22.0546875 60.1484375 C-26.01064274 48.78448688 -28.19121243 38.50412924 -28.40625 26.41796875 C-28.44552612 25.09321533 -28.44552612 25.09321533 -28.4855957 23.74169922 C-28.50860106 14.62305622 -25.37474727 7.54505345 -19.03125 1.04296875 C-13.31346782 -2.51832231 -6.22479391 -1.9653022 0 0 Z " fill="#FDFDFD" transform="translate(1116.03125,875.95703125)"/>
<path d="M0 0 C7.80801591 5.40388341 14.13578332 12.75054611 16.54638672 22.12475586 C17.14800494 25.93813463 17.23425083 29.73038013 17.31640625 33.58203125 C17.33718735 34.39621017 17.35796844 35.2103891 17.37937927 36.04924011 C17.44449463 38.63691179 17.50358208 41.22468053 17.5625 43.8125 C17.60572142 45.57227545 17.64933685 47.33204128 17.69335938 49.09179688 C17.8001368 53.39443309 17.90151018 57.69716643 18 62 C18.66 62 19.32 62 20 62 C20.433125 63.010625 20.86625 64.02125 21.3125 65.0625 C21.72242188 66.01189453 21.72242188 66.01189453 22.140625 66.98046875 C22.70662541 68.31056971 23.25911387 69.64651451 23.796875 70.98828125 C25.08428975 74.67521672 25.08428975 74.67521672 28 77 C30.74106368 81.16235597 31.29312419 84.17082746 30.91015625 88.97265625 C28.37542118 94.61869702 21.17577405 97.88896598 16 100.8125 C15.31421875 101.21919922 14.6284375 101.62589844 13.921875 102.04492188 C9.83074781 104.36765153 6.8231979 105.77037189 2 105 C-2.34074247 103.10998151 -3.91248821 100.95263317 -5.9375 96.75 C-8.15125439 92.39724137 -10.45542502 88.98699697 -13.8984375 85.53515625 C-15 84 -15 84 -15 80 C-15.58136719 79.72414063 -16.16273438 79.44828125 -16.76171875 79.1640625 C-18.92696749 78.037982 -20.82072268 76.78142264 -22.8125 75.375 C-27.53771915 72.16467669 -32.49665585 69.5392523 -37.5949707 66.97998047 C-44.03805651 63.66978681 -48.84492429 59.87670377 -52.75 53.625 C-53.32234375 52.73039063 -53.8946875 51.83578125 -54.484375 50.9140625 C-59.04031713 42.15444182 -59.965994 30.5407989 -57.46533203 20.94921875 C-53.54249557 9.88755211 -45.79232095 2.02601498 -35.375 -3.0625 C-23.58105724 -7.4076368 -10.9176018 -6.12590798 0 0 Z " fill="#F9F9F9" transform="translate(994,793)"/>
<path d="M0 0 C0.99 0.33 1.98 0.66 3 1 C4.11932602 3.3319292 5.08469169 5.5907947 6 8 C7.5388807 12.78294058 7.5388807 12.78294058 11 16 C13.74106368 20.16235597 14.29312419 23.17082746 13.91015625 27.97265625 C11.37542118 33.61869702 4.17577405 36.88896598 -1 39.8125 C-1.68578125 40.21919922 -2.3715625 40.62589844 -3.078125 41.04492188 C-7.16925219 43.36765153 -10.1768021 44.77037189 -15 44 C-19.34074247 42.10998151 -20.91248821 39.95263317 -22.9375 35.75 C-25.15125439 31.39724137 -27.45542502 27.98699697 -30.8984375 24.53515625 C-32 23 -32 23 -32 19 C-31.0255896 18.45641846 -31.0255896 18.45641846 -30.03149414 17.90185547 C-27.03969594 16.230023 -24.05109481 14.55255169 -21.0625 12.875 C-20.04091797 12.30523438 -19.01933594 11.73546875 -17.96679688 11.1484375 C-12.37728802 8.00545489 -7.01462546 4.76376653 -1.83764648 0.97314453 C-0.92801147 0.49143799 -0.92801147 0.49143799 0 0 Z " fill="#7A7A7A" transform="translate(1011,854)"/>
<path d="M0 0 C5.79597913 2.46507372 10.16159155 6.3231831 13 12 C13.50178565 18.44601568 13.96229274 24.58486659 10 30 C5.47996841 34.52003159 1.67341414 36.16872898 -4.6875 36.4375 C-10.20872974 36.39070992 -13.33879136 35.372177 -17.44140625 31.6875 C-22.19997502 26.53536539 -22.53645601 21.63438439 -22.3515625 14.84375 C-21.71351746 9.68267458 -19.23673782 7.11306403 -15.5 3.75 C-10.34308517 0.14015962 -6.27423441 -1.00964692 0 0 Z " fill="#030303" transform="translate(1157,937)"/>
<path d="M0 0 C0.99 0.33 1.98 0.66 3 1 C4.018809 5.38087871 4.28722291 8.04934224 2 12 C-1.97244552 15.51951248 -6.34869946 18.13391501 -10.9375 20.75 C-11.62779297 21.16121094 -12.31808594 21.57242188 -13.02929688 21.99609375 C-17.16449264 24.35570309 -20.10755638 25.64280281 -25 25 C-27.875 23.625 -27.875 23.625 -30 22 C-30 21.34 -30 20.68 -30 20 C-28.19140625 18.6953125 -28.19140625 18.6953125 -25.5625 17.125 C-19.41076879 13.33437711 -13.5420066 9.20091955 -7.66430664 5.00048828 C-6.95910889 4.49759277 -6.25391113 3.99469727 -5.52734375 3.4765625 C-4.89562256 3.02361816 -4.26390137 2.57067383 -3.61303711 2.10400391 C-2 1 -2 1 0 0 Z " fill="#757575" transform="translate(1021,873)"/>
<path d="M0 0 C3 1 3 1 5 4 C4.91650391 5.96899414 4.91650391 5.96899414 4 8 C1.97802734 9.75170898 1.97802734 9.75170898 -0.6640625 11.49609375 C-1.62183594 12.13740234 -2.57960938 12.77871094 -3.56640625 13.43945312 C-4.57574219 14.09880859 -5.58507812 14.75816406 -6.625 15.4375 C-8.5967356 16.74812425 -10.56809794 18.05931026 -12.5390625 19.37109375 C-13.47886963 19.98903809 -14.41867676 20.60698242 -15.38696289 21.24365234 C-17.65812525 22.77020957 -19.84887431 24.35982223 -22.03515625 26.00390625 C-25 28 -25 28 -27.8125 27.5 C-30 26 -30 26 -32 23 C-32 21.68 -32 20.36 -32 19 C-31.0255896 18.45641846 -31.0255896 18.45641846 -30.03149414 17.90185547 C-27.03969594 16.230023 -24.05109481 14.55255169 -21.0625 12.875 C-20.04091797 12.30523438 -19.01933594 11.73546875 -17.96679688 11.1484375 C-12.37728802 8.00545489 -7.01462546 4.76376653 -1.83764648 0.97314453 C-0.92801147 0.49143799 -0.92801147 0.49143799 0 0 Z " fill="#787878" transform="translate(1011,854)"/>
<path d="M0 0 C0.70125 0.2475 1.4025 0.495 2.125 0.75 C1.94140625 2.52734375 1.94140625 2.52734375 1.125 4.75 C-1.03515625 6.50390625 -1.03515625 6.50390625 -3.9375 8.3125 C-5.01128906 8.993125 -6.08507812 9.67375 -7.19140625 10.375 C-7.77937988 10.74753906 -8.36735352 11.12007812 -8.97314453 11.50390625 C-11.05305188 12.86665941 -13.07129176 14.29800267 -15.08984375 15.75 C-15.80068115 16.25716553 -16.51151855 16.76433105 -17.24389648 17.28686523 C-18.64953118 18.29314445 -20.04897851 19.30813097 -21.44165039 20.33227539 C-22.08996826 20.79110107 -22.73828613 21.24992676 -23.40625 21.72265625 C-23.97923828 22.13781494 -24.55222656 22.55297363 -25.14257812 22.98071289 C-27.40249435 23.98423544 -28.5911548 23.55266027 -30.875 22.75 C-31.205 21.43 -31.535 20.11 -31.875 18.75 C-31.14410156 18.38261719 -31.14410156 18.38261719 -30.3984375 18.0078125 C-23.92385637 14.59394245 -18.10720549 10.45298226 -12.20703125 6.15234375 C-3.295591 -0.28657313 -3.295591 -0.28657313 0 0 Z " fill="#7A7A7A" transform="translate(1019.875,869.25)"/>
<path d="M0 0 C2.1640625 -0.51171875 2.1640625 -0.51171875 5 0 C7.22863939 2.46838938 8.76084965 5.2929166 10.375 8.1875 C10.83777344 8.95642578 11.30054688 9.72535156 11.77734375 10.51757812 C15.05424395 16.21547176 15.05424395 16.21547176 14.7890625 20.05078125 C14.52867187 20.69402344 14.26828125 21.33726562 14 22 C11.8359375 22.51171875 11.8359375 22.51171875 9 22 C6.77136061 19.53161062 5.23915035 16.7070834 3.625 13.8125 C3.16222656 13.04357422 2.69945312 12.27464844 2.22265625 11.48242188 C-1.05424395 5.78452824 -1.05424395 5.78452824 -0.7890625 1.94921875 C-0.52867187 1.30597656 -0.26828125 0.66273438 0 0 Z " fill="#EBEBEB" transform="translate(938,762)"/>
<path d="M0 0 C5.2792498 0.44670575 9.62291244 2.3926951 14.375 4.5625 C15.11105469 4.89185547 15.84710937 5.22121094 16.60546875 5.56054688 C18.40644557 6.36747805 20.20362181 7.1828826 22 8 C22.042721 9.66611905 22.04063832 11.33382885 22 13 C21.67 13.33 21.34 13.66 21 14 C15.37582993 13.60594987 11.07739095 11.92279925 6.0625 9.4375 C5.37865234 9.10814453 4.69480469 8.77878906 3.99023438 8.43945312 C2.32268129 7.63482961 0.66073161 6.8186103 -1 6 C-1.042721 4.33388095 -1.04063832 2.66617115 -1 1 C-0.67 0.67 -0.34 0.34 0 0 Z " fill="#EDEDED" transform="translate(905,795)"/>
<path d="M0 0 C1.66611905 -0.042721 3.33382885 -0.04063832 5 0 C6.6680907 1.6680907 6.17145582 3.64959973 6.1875 5.9375 C6.1512006 11.48404804 5.30641458 16.62270425 4 22 C2.34385343 22.38218767 0.67542976 22.71395102 -1 23 C-3.01104219 20.98895781 -2.18506471 17.0619438 -2.1875 14.3125 C-2.19974609 13.60416016 -2.21199219 12.89582031 -2.22460938 12.16601562 C-2.23692394 7.72045783 -1.66936626 4.18991135 0 0 Z " fill="#E8E8E8" transform="translate(981,752)"/>
<path d="M0 0 C-1.28063447 3.84190341 -2.67582635 4.3485734 -6.0625 6.5 C-9.83816236 8.93239787 -13.5771894 11.38319741 -17.25 13.96875 C-17.96534912 14.47083984 -18.68069824 14.97292969 -19.41772461 15.49023438 C-20.83337755 16.48675091 -22.24573481 17.48796791 -23.65454102 18.49414062 C-28.66725049 22 -28.66725049 22 -32 22 C-32 21.34 -32 20.68 -32 20 C-29.63758522 18.22591444 -27.27131708 16.56864057 -24.8125 14.9375 C-23.34600842 13.95103464 -21.87986782 12.9640473 -20.4140625 11.9765625 C-19.67446289 11.4805957 -18.93486328 10.98462891 -18.17285156 10.47363281 C-16.14546546 9.098655 -14.14273369 7.6958476 -12.1484375 6.2734375 C-11.26901489 5.64900757 -11.26901489 5.64900757 -10.37182617 5.01196289 C-8.77051027 3.87161429 -7.17227788 2.72693936 -5.57421875 1.58203125 C-3 0 -3 0 0 0 Z " fill="#A9A9AA" transform="translate(1022,871)"/>
<path d="M0 0 C0.33 0.99 0.66 1.98 1 3 C0.43603516 3.39268066 -0.12792969 3.78536133 -0.70898438 4.18994141 C-3.30701634 6.00015901 -5.90351422 7.8125654 -8.5 9.625 C-9.386875 10.24246094 -10.27375 10.85992188 -11.1875 11.49609375 C-16.00463752 14.86100599 -20.73669237 18.27543504 -25.32617188 21.94677734 C-27 23 -27 23 -30 23 C-28.58411818 19.57100512 -27.03344475 18.0222965 -23.96484375 15.9765625 C-23.15466797 15.43 -22.34449219 14.8834375 -21.50976562 14.3203125 C-20.23649414 13.48113281 -20.23649414 13.48113281 -18.9375 12.625 C-18.11572266 12.07328125 -17.29394531 11.5215625 -16.44726562 10.953125 C-13.97074964 9.29302144 -11.48609992 7.64570753 -9 6 C-7.29257847 4.86256481 -5.58552594 3.72457543 -3.87890625 2.5859375 C-2.5859375 1.72395833 -1.29296875 0.86197917 0 0 Z " fill="#AAAAAB" transform="translate(1015,861)"/>
<path d="M0 0 C0 0.99 0 1.98 0 3 C-2.0625 4.65625 -2.0625 4.65625 -5 6.5 C-6.08152344 7.1909375 -7.16304687 7.881875 -8.27734375 8.59375 C-8.87144043 8.97273437 -9.46553711 9.35171875 -10.07763672 9.7421875 C-12.16753333 11.10961795 -14.2118649 12.53088743 -16.25390625 13.96875 C-16.96869141 14.47083984 -17.68347656 14.97292969 -18.41992188 15.49023438 C-19.83455116 16.48705155 -21.24608638 17.48827598 -22.65429688 18.49414062 C-27.66762619 22 -27.66762619 22 -31 22 C-29.62322167 17.86966502 -26.76719812 16.60744201 -23.25 14.375 C-21.88590806 13.49083282 -20.52264292 12.60538889 -19.16015625 11.71875 C-18.46809082 11.27015625 -17.77602539 10.8215625 -17.06298828 10.359375 C-12.80493349 7.55359404 -8.66731625 4.57159753 -4.51171875 1.6171875 C-2 0 -2 0 0 0 Z " fill="#AAABAB" transform="translate(1019,866)"/>
<path d="M0 0 C0 2.1875 0 2.1875 -1 5 C-4.52449252 8.18063959 -8.1848535 10.3125 -13 10.3125 C-13.99 10.209375 -14.98 10.10625 -16 10 C-16 9.34 -16 8.68 -16 8 C-13.71125827 6.66141476 -11.41930344 5.32898986 -9.125 4 C-8.47402344 3.6184375 -7.82304688 3.236875 -7.15234375 2.84375 C-2.2265625 0 -2.2265625 0 0 0 Z " fill="#201D1E" transform="translate(1020,888)"/>
</svg>
